<svg height="512pt" viewBox="-31 0 512 512" width="512pt" xmlns="http://www.w3.org/2000/svg"><path d="M135 422H75c-8.29 0-15-6.71-15-15s6.71-15 15-15h45V255c0-8.29 6.71-15 15-15s15 6.71 15 15v152c0 8.29-6.71 15-15 15zm0 0M240 255v182c0 8.398-6.598 15-15 15s-15-6.602-15-15V255c0-8.402 6.598-15 15-15s15 6.598 15 15zm0 0" fill="#465a61"/><path d="M375 422h-60c-8.29 0-15-6.71-15-15V255c0-8.29 6.71-15 15-15s15 6.71 15 15v137h45c8.29 0 15 6.71 15 15s-6.71 15-15 15zm0 0M240 255v182c0 8.398-6.598 15-15 15V240c8.402 0 15 6.598 15 15zm0 0" fill="#3b4a51"/><path d="M364.5 90c-17.398-36.3-54-60-94.5-60-3.3 0-6.898.3-10.2.598C249.3 21.3 237.599 13.8 225 8.699 210.902 3 195.602 0 180 0 123.898 0 75.3 39.898 63.3 94.2 26.103 105.597 0 140.097 0 180c0 49.5 40.5 90 90 90h270c49.5 0 90-40.5 90-90 0-48-38.102-87.602-85.5-90zm0 0" fill="#c6e2e7"/><path d="M450 180c0 49.5-40.5 90-90 90H225V8.7c12.598 5.097 24.3 12.597 34.8 21.898C263.103 30.3 266.7 30 270 30c40.5 0 77.102 23.7 94.5 60 47.398 2.398 85.5 42 85.5 90zm0 0" fill="#a8d3d8"/><path d="M45 452c-24.813 0-45-20.188-45-45s20.188-45 45-45 45 20.188 45 45-20.188 45-45 45zm0 0M225 422c-24.902 0-45 20.098-45 45 0 24.898 20.098 45 45 45s45-20.102 45-45c0-24.902-20.098-45-45-45zm0 0" fill="#697c86"/><g fill="#596c76"><path d="M405 452c-24.813 0-45-20.188-45-45s20.188-45 45-45 45 20.188 45 45-20.188 45-45 45zm0 0M270 467c0 24.898-20.098 45-45 45v-90c24.902 0 45 20.098 45 45zm0 0"/></g></svg>