<svg xmlns="http://www.w3.org/2000/svg" viewBox="0 0 512 512"><path d="M256 452.267a8.53 8.53 0 0 1-8.534-8.534V8.533a8.535 8.535 0 0 1 17.067 0v435.2a8.53 8.53 0 0 1-8.533 8.534z" fill="#2c3e50"/><path d="M46.051 225.323h39.283v136.533H46.051c-11.295 0-20.451-9.156-20.451-20.451v-95.632c0-11.293 9.156-20.45 20.451-20.45z" fill="#90bae1"/><path d="M256 443.733c-56.554 0-102.4 26.743-102.4 59.733h204.8c0-32.989-45.846-59.733-102.4-59.733z" fill="#9bc8c2"/><g fill="#90bae1"><path d="M153.6 225.323l26.635 26.635a25.6 25.6 0 0 0 18.102 7.498H230.4c14.139 0 25.6 11.462 25.6 25.6 0 14.138-11.461 25.6-25.6 25.6h-49.129a25.6 25.6 0 0 1-18.102-7.498l-77.835-77.835H153.6zM153.6 360.363v112.469c-.016 16.912-13.722 30.618-30.635 30.635h-6.997c-16.912-.016-30.618-13.722-30.635-30.635V360.363H153.6z"/></g><path fill="#b0d3f0" d="M153.6 293.632v66.731H85.333V225.365z"/><path d="M452.267 67.584h-59.733V33.451a8.216 8.216 0 0 0-8.533-7.851H264.533A8.214 8.214 0 0 0 256 33.451V94.55a8.216 8.216 0 0 0 8.533 7.851H332.8v42.667a8.306 8.306 0 0 0 2.731 6.229 8.42 8.42 0 0 0 5.803 2.304h110.933a8.558 8.558 0 0 0 8.533-8.533V76.117a8.558 8.558 0 0 0-8.533-8.533z" fill="#c03a2b"/><g fill="#e64c3c"><path d="M392.533 33.451V102.4h-128A8.215 8.215 0 0 1 256 94.549V33.451a8.216 8.216 0 0 1 8.533-7.851H384a8.214 8.214 0 0 1 8.533 7.851z"/><path d="M460.8 76.117v68.949a8.558 8.558 0 0 1-8.533 8.533H341.333a8.423 8.423 0 0 1-5.803-2.304l57.003-48.896V67.584h59.733a8.558 8.558 0 0 1 8.534 8.533z"/></g><path d="M119.467 85.333c-20.746 0-40.61 8.393-55.07 23.27s-22.287 34.97-21.7 55.708c1.564 40.531 34.062 73.029 74.593 74.593a76.8 76.8 0 0 0 78.978-76.77h-59.733c-9.426 0-17.067-7.641-17.067-17.067V85.333z" fill="#b0d3f0"/><path d="M119.467 85.333v59.733c0 9.426 7.641 17.067 17.067 17.067h59.733c0-42.415-34.385-76.8-76.8-76.8z" fill="#2fa8cc"/><path d="M503.467 512H8.533a8.533 8.533 0 0 1 0-17.066h494.933a8.533 8.533 0 0 1 8.533 8.533 8.531 8.531 0 0 1-8.532 8.533z" fill="#41767f"/></svg>