<svg xmlns="http://www.w3.org/2000/svg" viewBox="0 0 496 496"><path d="M488 496H216c-4.416 0-8-3.584-8-8V80c0-4.416 3.584-8 8-8h272c4.416 0 8 3.584 8 8v408c0 4.416-3.584 8-8 8z" fill="#d3eefd"/><path d="M464 496H208V296h256c4.416 0 8 3.584 8 8v184c0 4.416-3.584 8-8 8z" fill="#c9e2f0"/><path d="M184 304h270.712c5.128 0 9.288 3.584 9.288 8v176c0 4.416-4.16 8-9.288 8H184V304z" fill="#a2ce6d"/><g fill="#e8f3db"><circle cx="312" cy="400" r="48"/><path d="M416 472h-64v-16h56v-8c0-2.12.84-4.16 2.344-5.656L424 428.688v-57.376l-13.656-13.656A7.979 7.979 0 0 1 408 352v-8h-56v-16h64c4.416 0 8 3.584 8 8v12.688l13.656 13.656A7.979 7.979 0 0 1 440 368v64c0 2.12-.84 4.16-2.344 5.656L424 451.312V464c0 4.416-3.584 8-8 8zM232 328h40v16h-40zM256 456h16v16h-16z"/></g><path d="M446.24 96H257.76c-5.048 0-8.832-4.616-7.848-9.568l5.096-25.488a8.001 8.001 0 0 1 5.872-6.184l23.104-5.864a8 8 0 0 0 5.16-4.12l20.624-40.408A8.004 8.004 0 0 1 316.896 0h70.616a7.994 7.994 0 0 1 7.184 4.48l19.672 40.176a7.992 7.992 0 0 0 5.248 4.24l23.48 5.872c3 .752 5.296 3.16 5.904 6.192l5.096 25.464c.984 4.96-2.808 9.576-7.856 9.576z" fill="#4dbaf8"/><path fill="#d3eefd" d="M360 48V24h-16v24h-16v16h48V48z"/><path fill="#4dbaf8" d="M440 248v-80h-16v80h-24v-96h-16v96h-24V136h-16v112h-24v-96h-16v96h-24v-80h-16v80h-16v16h208v-16z"/><path d="M238.864 384.4L198.16 304H176v192h7.824c35.04 0 63.56-28.176 63.992-63.208l.184-14.584a64.193 64.193 0 0 0-9.136-33.808z" fill="#99c367"/><g fill="#fdcd3b"><path d="M175.824 496H64c-35.344 0-64-28.656-64-64v-14.424a64.18 64.18 0 0 1 8.944-32.688L77.224 248h84.584l69.056 136.4A64.201 64.201 0 0 1 240 418.216l-.184 14.576C239.384 467.824 210.864 496 175.824 496zM160 232H80l-16-48 8-24h96l8 24z"/></g><path d="M136 368h-32c-4.408 0-8-3.592-8-8v-16c0-4.408 3.592-8 8-8h48v-16h-24v-8h-16v8h-8c-13.232 0-24 10.768-24 24v16c0 13.232 10.768 24 24 24h32c4.408 0 8 3.592 8 8v16c0 4.408-3.592 8-8 8H88v16h24v8h16v-8h8c13.232 0 24-10.768 24-24v-16c0-13.232-10.768-24-24-24z" fill="#fff7e2"/><path d="M160 256H80c-4.416 0-8-3.584-8-8v-16c0-4.416 3.584-8 8-8h80c4.416 0 8 3.584 8 8v16c0 4.416-3.584 8-8 8z" fill="#f95055"/></svg>